<?xml version="1.0" encoding="utf-8"?>
<!-- Generator: Adobe Illustrator 19.2.1, SVG Export Plug-In . SVG Version: 6.00 Build 0)  -->
<svg version="1.1" id="Capa_1" xmlns="http://www.w3.org/2000/svg" xmlns:xlink="http://www.w3.org/1999/xlink" x="0px" y="0px"
	 viewBox="0 0 469.8 469.8" style="enable-background:new 0 0 469.8 469.8;" xml:space="preserve">
<style type="text/css">
	.st0{fill:#FF0000;}
</style>
<g transform="matrix(1.25 0 0 -1.25 0 45)">
	<g>
		<g>
			<path class="st0" d="M228.3-151.8L367.5-12.6c11.1,11.1,11.1,29.1,0,40.2c-11.1,11.1-29.1,11.1-40.2,0L188.1-111.5L48.9,27.7
				c-11.1,11.1-29.1,11.1-40.2,0C-2.5,16.6-2.5-1.5,8.6-12.6l139.2-139.2L8.3-291.3c-11.1-11.1-11.1-29.1,0-40.2
				c5.6-5.6,12.8-8.3,20.1-8.3c7.3,0,14.6,2.8,20.1,8.3L188.1-192l139.2-139.2c5.6-5.6,12.8-8.3,20.1-8.3c7.3,0,14.6,2.8,20.1,8.3
				c11.1,11.1,11.1,29.1,0,40.2L228.3-151.8z"/>
		</g>
	</g>
</g>
</svg>
