<?xml version="1.0" encoding="utf-8"?>
<!-- Generator: Adobe Illustrator 19.2.1, SVG Export Plug-In . SVG Version: 6.00 Build 0)  -->
<svg version="1.1" id="Layer_1" xmlns="http://www.w3.org/2000/svg" xmlns:xlink="http://www.w3.org/1999/xlink" x="0px" y="0px"
	 viewBox="0 0 412.3 186.3" style="enable-background:new 0 0 412.3 186.3;" xml:space="preserve">
<style type="text/css">
	.st0{fill:#FF0000;}
</style>
<g>
	<path class="st0" d="M75.2,46.5l37.1,140.2H82.9L76.4,157H39.1l-6.5,29.6H3.2L40.3,46.5H75.2z M71.5,133.9L58,70.9h-0.4l-13.5,63
		H71.5z"/>
	<path class="st0" d="M148.6,144.3c0,3.5,0.2,6.8,0.7,9.7s1.3,5.5,2.6,7.7c1.2,2.2,2.9,3.9,5.1,5.1c2.2,1.2,4.9,1.9,8.1,1.9
		c3.4,0,6.2-0.6,8.2-1.9c2.1-1.2,3.8-2.9,5-5.1c1.2-2.2,2.1-4.7,2.6-7.7c0.5-2.9,0.7-6.2,0.7-9.7V46.5h28.3v97.8
		c0,8.9-1.2,16.3-3.7,22.1s-5.8,10.4-10,13.8c-4.2,3.4-9,5.7-14.3,6.9c-5.4,1.2-10.9,1.8-16.7,1.8s-11.3-0.5-16.7-1.6
		c-5.4-1-10.1-3.2-14.3-6.4s-7.5-7.8-10-13.6c-2.5-5.9-3.7-13.5-3.7-23V46.5h28.3v97.8H148.6z"/>
	<path class="st0" d="M309.8,69.7h-30.6v117h-28.3v-117h-30.6V46.5h89.5V69.7z"/>
	<path class="st0" d="M320.5,87.2c1-9,3.1-16.7,6.5-23.1c3.3-6.4,8.1-11.4,14.4-15s14.7-5.4,25.3-5.4c10.6,0,19,1.8,25.3,5.4
		c6.3,3.6,11.1,8.6,14.4,15s5.5,14.1,6.5,23.1s1.5,18.7,1.5,29.3c0,10.7-0.5,20.5-1.5,29.4s-3.1,16.6-6.5,23
		c-3.3,6.4-8.1,11.3-14.4,14.7s-14.7,5.1-25.3,5.1c-10.6,0-19-1.7-25.3-5.1c-6.3-3.4-11.1-8.3-14.4-14.7s-5.5-14.1-6.5-23
		s-1.5-18.7-1.5-29.4C319,106,319.5,96.2,320.5,87.2z M348,140.6c0.5,6.6,1.4,12,2.8,16.1s3.3,7.1,5.9,9s5.9,2.8,10.1,2.8
		s7.6-0.9,10.1-2.8c2.6-1.9,4.5-4.9,5.9-9s2.3-9.5,2.8-16.1s0.7-14.6,0.7-24s-0.2-17.4-0.7-23.9s-1.4-11.9-2.8-16.1
		s-3.3-7.2-5.9-9.1s-5.9-2.8-10.1-2.8s-7.6,1-10.1,2.8c-2.6,1.9-4.5,4.9-5.9,9.1s-2.3,9.6-2.8,16.1s-0.7,14.5-0.7,23.9
		S347.5,134,348,140.6z"/>
	<circle class="st0" cx="264.8" cy="15.6" r="16.6"/>
</g>
</svg>
