<svg id="Layer_1" data-name="Layer 1" xmlns="http://www.w3.org/2000/svg" viewBox="0 0 133.91 133.92"><defs><style>.cls-1{fill:#ed2224;}</style></defs><title>modify</title><path class="cls-1" d="M33.25,133.92a33.29,33.29,0,0,1-12.15-2.3,5.15,5.15,0,0,1-1.76-8.44l14.23-14.23a0.46,0.46,0,0,0,0-.66l-7.95-7.95a0.46,0.46,0,0,0-.66,0L10.74,114.57a5.15,5.15,0,0,1-8.44-1.76A33.24,33.24,0,0,1,42.1,68.63L68.64,42.09A33.22,33.22,0,0,1,112.8,2.3a5.15,5.15,0,0,1,1.76,8.44L100.34,25a0.46,0.46,0,0,0,0,.66l7.95,7.95a0.47,0.47,0,0,0,.66,0l14.23-14.23a5.15,5.15,0,0,1,8.44,1.76A33.24,33.24,0,0,1,91.81,65.28L65.26,91.83A33.22,33.22,0,0,1,33.25,133.92Zm-8-44a10.7,10.7,0,0,1,7.62,3.16L40.86,101a10.77,10.77,0,0,1,0,15.23l-7.38,7.38a22.93,22.93,0,0,0,21.1-31.32,5.15,5.15,0,0,1,1.16-5.51l31-31a5.16,5.16,0,0,1,5.52-1.16A22.93,22.93,0,0,0,123.6,33.49l-7.37,7.37a10.77,10.77,0,0,1-15.23,0l-7.95-7.95a10.77,10.77,0,0,1,0-15.23l7.38-7.38A22.93,22.93,0,0,0,79.33,41.63a5.15,5.15,0,0,1-1.16,5.51l-31,31a5.15,5.15,0,0,1-5.52,1.16,22.93,22.93,0,0,0-31.31,21.11l7.37-7.37A10.7,10.7,0,0,1,25.3,89.9Z"/></svg>