<svg id="Layer_1" data-name="Layer 1" xmlns="http://www.w3.org/2000/svg" viewBox="0 0 1937 333.91"><defs><style>.cls-1{fill:#dbf1fd;}.cls-2,.cls-3{fill:none;stroke:#818181;}.cls-17,.cls-2,.cls-3{stroke-miterlimit:10;stroke-width:5px;}.cls-3{stroke-dasharray:30 50;}.cls-4{fill:#c6c1af;}.cls-5{fill:#4d833c;}.cls-6{fill:#406e35;}.cls-7{fill:#6a5121;}.cls-8{fill:#6fb358;}.cls-9{fill:#88c982;}.cls-10{fill:#6ba562;}.cls-11{fill:#6ca643;}.cls-12{fill:#84c550;}.cls-13{fill:#b4cb34;}.cls-14{fill:#abb838;}.cls-15{fill:#94c85b;}.cls-16{fill:#84af4b;}.cls-17,.cls-20{fill:#676767;}.cls-17{stroke:#676767;}.cls-18{fill:#4e4e4e;}.cls-19{fill:#3db54a;}</style></defs><title>road</title><polyline class="cls-1" points="0 168.91 0 296.83 0 283.91 1937 283.91 1937 206.03 1937 206.49 1700.53 108.44 1478.52 227.38 1297.77 181.21 1258.94 198 946.46 86.71 693.96 198 599.14 157.47 382.8 231.49 158.84 118"/><line class="cls-2" x1="12" y1="331.41" x2="27" y2="331.41"/><line class="cls-3" x1="77" y1="331.41" x2="1897" y2="331.41"/><line class="cls-2" x1="1922" y1="331.41" x2="1937" y2="331.41"/><ellipse class="cls-4" cx="1394.84" cy="282.68" rx="31.49" ry="12.5"/><ellipse class="cls-4" cx="1131.42" cy="281.43" rx="37.35" ry="14.83"/><path class="cls-5" d="M1132.16,200.43s-20.31-5.46-28.9-34-9.95-99.67,0-128.17S1136.16-12,1149.9,7.38s22.06,108.77,12.58,147S1139.27,198.61,1132.16,200.43Z" transform="translate(0)"/><path class="cls-6" d="M1125,5c16.75,1.77,25.35,40.34,28.91,68.22s6.36,89.33-16.91,96.6c-23.06,7.2-34.76-8-35-8.29,0.41,1.74.84,3.39,1.3,4.9,8.59,28.5,28.9,34,28.9,34,7.11-1.82,20.84-7.88,30.32-46.08s1.16-127.56-12.58-147C1143-2.4,1133.71-1.69,1125,5Z" transform="translate(0)"/><path class="cls-7" d="M1123,285s2.59-104,1.85-107.44-10-19.47-10-19.47,11.85,14.47,13,8.49,3.33-51.4,3.33-51.4,0.74,45.91,3.7,45.41,15.18-18.47,15.18-18.47-14.07,24-14.07,32.94S1137.13,285,1137.13,285H1123Z" transform="translate(0)"/><ellipse class="cls-4" cx="1002.87" cy="283.65" rx="57.66" ry="12.5"/><path class="cls-5" d="M957.3,283.65s-13.66-3.73-8.28-16.56,17-4.14,17-4.14-11.59-9.52-2.48-17.81,11.59,9.94,11.59,9.94-4.55-21.95,15.32-25.67,25.67,24.84,25.67,24.84,2.07-21.53,11.18-22.36,0,19.46,0,19.46,11.13-17.39,27.51-5-3.5,37.27-3.5,37.27h-94Z" transform="translate(0)"/><path class="cls-8" d="M955.53,271.15c2.19-5.86,14.79-4.19,14.79-4.19s-6.6-14-3.94-15.67S977.05,260,977.05,260s-1.08-14.33,6.63-20.33,22-.54,30,16.73c0,0,.92-1.32,2.21-2.82-1.06-4.39-7.51-27.51-25.51-24.13C973,232.68,974.36,250,975,254.17c-0.65-3.57-3.57-16.19-11.44-9-9.11,8.28,2.48,17.81,2.48,17.81s-11.59-8.7-17,4.14,8.28,16.56,8.28,16.56S953.34,277,955.53,271.15Z" transform="translate(0)"/><path class="cls-8" d="M1054.79,246.38c-16.38-12.42-27.51,5-27.51,5s9.11-20.29,0-19.46c-7.91.72-10.51,17-11.06,21.32,2.07-2.36,4.93-5,6.5-3.58,2.67,2.33,1.67,9,1.67,9s11.33-12,20.33-7.33,6.57,32.35,6.57,32.35S1071.17,258.8,1054.79,246.38Z" transform="translate(0)"/><ellipse class="cls-4" cx="789.39" cy="284.03" rx="31.49" ry="12.5"/><path class="cls-9" d="M844.85,151c-4.87-17.33-20.94-25.4-35.53-25.45-5.87-15.07-25.34-23.27-41.13-17.21-18.31,7-23.28,27.48-18.62,41.86h0a30.06,30.06,0,0,0-14,13c-8.24,14.36,2.39,33.51,18.36,37,14.59,3.22,26.58-6.48,31.11-17.44,6.67,7.31,16.17,12.1,28.26,12.47C835.05,195.89,850.67,171.7,844.85,151Z" transform="translate(0)"/><path class="cls-10" d="M807.41,177.33c-13.63,1.3-21.52-5.8-21.52-5.8s-9.33,10.09-28,11.5c-17.26,1.3-24.16-9.65-25.09-11.29-1.26,12.51,8.17,25.61,21.11,28.46,14.59,3.22,26.58-6.48,31.11-17.44,6.67,7.31,16.17,12.1,28.26,12.47,21.75,0.66,37.37-23.53,31.55-44.23-4.87-17.33-20.94-25.4-35.53-25.45C835.61,144.54,821,176,807.41,177.33Z" transform="translate(0)"/><path class="cls-7" d="M780,287s2.63-92.29,1.88-95.47-10.15-17.73-10.15-17.73,12,13.18,13.16,7.73,3.38-46.83,3.38-46.83S789,176.55,792,176.1s15.41-16.83,15.41-16.83-14.29,21.83-14.29,30S794.25,287,794.25,287H780Z" transform="translate(0)"/><ellipse class="cls-4" cx="653.19" cy="281.3" rx="63.04" ry="12.5"/><path class="cls-11" d="M608.56,281.3s-9.65-24.58-2.3-32.83,21.84-7.33,26.66,1.37c0,0,1.38-8.93,11.72-10.42s13.33,8.13,13.56,12c0,0,8.28-6.87,17.7-5.73s11.73,9.39,9.89,12.37c0,0,24.68.3,15.63,23.21H608.56Z" transform="translate(0)"/><path class="cls-12" d="M613.15,254.61c8-5,18.67,2.33,18.67,2.33s4-9.21,12.82-8.77,12.84,9.1,12.84,9.1,10.63-6.33,18.65-1.33,7,10.33,7,10.33,19.54-1.63,18.27,15c9.05-22.91-15.63-23.21-15.63-23.21,1.84-3-.46-11.22-9.89-12.37s-17.7,5.73-17.7,5.73c-0.23-3.89-3.22-13.52-13.56-12s-11.72,10.42-11.72,10.42c-4.83-8.7-19.31-9.62-26.66-1.37s2.3,32.83,2.3,32.83S605.15,259.61,613.15,254.61Z" transform="translate(0)"/><ellipse class="cls-4" cx="379.35" cy="281.51" rx="31.49" ry="12.5"/><path class="cls-13" d="M371.42,220.5s-11.25,8.08-18.72-2.79c0,0-12.45,3.11-15.26-8.38,0,0-14.94-1.24-14.32-12.74,0,0-18.05-8.7-6.22-25.16,0,0-11.52-10.25,1.55-21.74,0,0-10-14.91,7.47-19.26,0,0,1.56-17.71,19-13.67,0,0,4.67-14.91,21.48-9.32,0,0,15.1-11.2,23.66,3.73,0,0,16.5-2.17,19.61,11.49,0,0,15.88,2.18,14.32,18,0,0,12.19,11.18,4.4,24.54,0,0,7.76,22.24-9.08,24.23a15.26,15.26,0,0,1-9.43,14.2s-1.78,11.89-12.36,10c0,0-8.1,9-14,4Z" transform="translate(0)"/><path class="cls-14" d="M424,140.68c1.56-15.84-14.32-18-14.32-18,7.9,34.15-11.4,77.85-41.4,81.74s-45.15-7.82-45.15-7.82c-0.62,11.49,14.32,12.74,14.32,12.74,2.8,11.49,15.26,8.38,15.26,8.38,7.47,10.87,18.72,2.79,18.72,2.79l12.1-2.79c5.91,5,14-4,14-4,10.58,1.87,12.36-10,12.36-10a15.26,15.26,0,0,0,9.43-14.2c16.84-2,9.08-24.23,9.08-24.23C436.18,151.86,424,140.68,424,140.68Z" transform="translate(0)"/><path class="cls-7" d="M352.7,191.84s17.43,1.81,18.68,10.83-1.87,81.84-1.87,81.84h18.68s-8.1-81.84-5.29-87.77,11.83-9.28,11.83-9.28-10.28-.26-13.7,2.84-7.78,3.87-12.45,3.1S359.24,191.33,352.7,191.84Z" transform="translate(0)"/><ellipse class="cls-4" cx="513.17" cy="281.51" rx="31.49" ry="12.5"/><path class="cls-15" d="M503.14,199.94s-37-12.46-45.63-39.18S458.08,96,492.12,83s77.31,9.5,79.61,46.32S550.89,191,520.64,199.94h-17.5Z" transform="translate(0)"/><path class="cls-16" d="M571.73,129.29c-1.06-16.92-10.77-30.83-24.26-39.65h0c17.2,27.12,2.8,77.88-32.4,86.88-34.66,8.86-53.44-7.41-54-7.91,12.39,21.33,42.09,31.34,42.09,31.34h17.5C550.89,191,574,166.11,571.73,129.29Z" transform="translate(0)"/><path class="cls-7" d="M506.12,284.52S508.75,192.22,508,189s-10.15-17.73-10.15-17.73,12,13.18,13.16,7.73,3.38-46.83,3.38-46.83,0.75,41.83,3.76,41.38,15.41-16.83,15.41-16.83-14.29,21.83-14.29,30,1.13,97.75,1.13,97.75H506.12Z" transform="translate(0)"/><path class="cls-9" d="M1450.3,149.65c-4.87-17.33-20.94-25.4-35.53-25.45-5.87-15.07-25.34-23.27-41.13-17.21-18.31,7-23.28,27.48-18.62,41.86h0a30.06,30.06,0,0,0-14,13c-8.24,14.36,2.39,33.51,18.36,37,14.59,3.22,26.58-6.48,31.11-17.44,6.67,7.31,16.17,12.1,28.26,12.47C1440.5,194.54,1456.11,170.35,1450.3,149.65Z" transform="translate(0)"/><path class="cls-10" d="M1412.85,176c-13.63,1.3-21.52-5.8-21.52-5.8s-9.33,10.09-28,11.5c-17.26,1.3-24.16-9.65-25.09-11.29-1.26,12.51,8.17,25.61,21.11,28.46,14.59,3.22,26.58-6.48,31.11-17.44,6.67,7.31,16.17,12.1,28.26,12.47,21.75,0.66,37.37-23.53,31.55-44.23-4.87-17.33-20.94-25.4-35.53-25.45C1441.06,143.19,1426.48,174.68,1412.85,176Z" transform="translate(0)"/><path class="cls-7" d="M1385.41,285.69s2.63-92.29,1.88-95.47-10.15-17.73-10.15-17.73,12,13.18,13.16,7.73,3.38-46.83,3.38-46.83,0.75,41.83,3.76,41.38,15.41-16.83,15.41-16.83-14.29,21.83-14.29,30,1.13,97.75,1.13,97.75h-14.29Z" transform="translate(0)"/><rect class="cls-17" x="1602.5" y="170.41" width="34" height="70"/><circle class="cls-18" cx="1619.24" cy="203.88" r="7.39"/><circle class="cls-18" cx="1619.09" cy="225.75" r="7.39"/><circle class="cls-19" cx="1619.09" cy="183.31" r="7.39"/><ellipse class="cls-4" cx="1620" cy="284.91" rx="31.49" ry="12.5"/><rect class="cls-20" x="1616" y="237.91" width="6" height="50"/></svg>